<svg width="95" height="95" viewBox="0 0 95 95" xmlns="http://www.w3.org/2000/svg" xmlns:xlink="http://www.w3.org/1999/xlink"><title>avatar-bakyura</title><defs><path id="a" d="M0 0h95v95H0z"/></defs><g fill="none" fill-rule="evenodd"><mask id="b" fill="#fff"><use xlink:href="#a"/></mask><use fill="#7FDF20" xlink:href="#a"/><path d="M0 0v95h95V0H0zm4 4v87h87V4H4z" mask="url(#b)" fill="#FFF"/><path d="M53.85 28c.1.82.15 1.654.15 2.5C54 41.822 44.822 51 33.5 51S13 41.822 13 30.5c0-.846.05-1.68.15-2.5h40.7zM24 36c1.657 0 3-1.343 3-3s-1.343-3-3-3-3 1.343-3 3 1.343 3 3 3zm25.853 19h5.52c4.412 0 7.992 3.58 7.992 7.993v29.014c0 4.405-3.58 7.993-7.993 7.993H53.35V70.496c0-.826-.67-1.496-1.494-1.496h-.395c-.822 0-1.49.674-1.49 1.496V100H17.03V70.496c0-.826-.668-1.496-1.493-1.496h-.397c-.825 0-1.493.674-1.493 1.496V100h-2.02c-4.413 0-7.993-3.58-7.993-7.993V62.993c0-4.405 3.58-7.993 7.993-7.993h6.25l15.08 31.853h1.81L49.852 55zm-2.2 0h-27.55l13.92 29.068L47.653 55zM43 36c1.657 0 3-1.343 3-3s-1.343-3-3-3-3 1.343-3 3 1.343 3 3 3zM15 20V0h36v20h12.99c1.672 0 3.01 1.343 3.01 3 0 1.653-1.347 3-3.01 3H3.01C1.337 26 0 24.657 0 23c0-1.653 1.347-3 3.01-3H15zm10 36v8l5-1v-6l-5-1zm18 7.965v-8l-5 1.013v6l5 .987zM31 57h6v6h-6v-6z" transform="translate(14 5)" mask="url(#b)" fill="#FFF"/></g></svg>