<svg width="95" height="95" viewBox="0 0 95 95" xmlns="http://www.w3.org/2000/svg" xmlns:xlink="http://www.w3.org/1999/xlink"><title>avatar-gaki-2x</title><defs><rect id="a" width="95" height="95" rx="22"/><linearGradient x1="50%" y1="0%" x2="50%" y2="100%" id="b"><stop stop-color="#8FC49D" offset="0%"/><stop stop-color="#5FB969" offset="57.569%"/><stop stop-color="#26B32B" offset="100%"/></linearGradient></defs><g fill="none" fill-rule="evenodd"><mask id="c" fill="#fff"><use xlink:href="#a"/></mask><use fill="#FFF" xlink:href="#a"/><path d="M25.224 53.368V51.47c0-.85.69-1.54 1.54-1.54h4.76c.85 0 1.538.69 1.538 1.54v1.898c0 .85-.688 1.538-1.538 1.538h-4.76c-.85 0-1.54-.688-1.54-1.538zm1.54-8.22h4.76c.85 0 1.538-.688 1.538-1.538v-1.898c0-.85-.688-1.54-1.538-1.54h-4.76c-.85 0-1.54.69-1.54 1.54v1.898c0 .85.69 1.54 1.54 1.54zM89 25.15v46.375C89 81.175 81.175 89 71.523 89H24.477C14.825 89 7 81.175 7 71.523V24.477C7 14.825 14.825 7 24.477 7H61.35c.757 0 1.37.614 1.37 1.37v27.214c0 .622-.503 1.126-1.125 1.126H57.08c-.58 0-1.05-.47-1.05-1.052v-9.03c0-.52.38-.963.897-1.04l2.646-.392c.487-.073.848-.49.848-.984v-6.014c0-.604-.533-1.07-1.13-.985l-16.215 2.28c-.285.04-.497.284-.497.572v4.96c0 .494-.574.76-.95.443-2.964-2.495-6.274-6.65-7.455-8.176-.286-.37-.728-.587-1.197-.587h-7.35c-.496 0-.967.24-1.244.652-3.22 4.786-8.43 8.73-9.91 9.798-.252.183-.4.473-.4.786v6.64c0 .748.802 1.21 1.453.846 3.85-2.157 10.26-7.244 13.162-12.143.226-.38.776-.372.984.02 3.518 6.628 10.07 10.646 12.404 11.92.385.21.852-.068.852-.507v-6.55c0-.287.21-.53.493-.572l4.156-.616c.635-.095 1.206.397 1.206 1.04v7.64c0 .582-.47 1.053-1.05 1.053h-4.31c-.58 0-1.052.47-1.052 1.05v5.078c0 .58.47 1.052 1.052 1.052h4.31c.58 0 1.05.47 1.05 1.05v7.208c0 .507-.36.942-.86 1.034l-3.924.725c-.5.092-.86.526-.86 1.034v6.128c0 .667.61 1.166 1.264 1.03l3.115-.647c.653-.135 1.266.364 1.266 1.03v7.617c0 2.6-.9 2.796-2.705 3.092-.61.1-1.058.626-1.058 1.244v4.61c0 .764.67 1.353 1.425 1.25 1.793-.24 4.845-.666 6.59-.996 2.58-.488 2.998-2.37 2.998-6.343v-12.41c0-.502.353-.937.846-1.04l3.534-.733c.494-.103.847-.537.847-1.04v-5.736c0-.664-.6-1.165-1.254-1.045l-2.717.504c-.654.12-1.256-.38-1.256-1.045v-5.46c0-.585.473-1.06 1.06-1.06h4.532c.606 0 1.104.477 1.122 1.083.167 5.744 1.39 12.983 3.997 19.544.207.52.116 1.11-.24 1.54-2.27 2.74-4.504 4.347-5.428 4.95-.277.18-.442.49-.442.82v5.91c0 .647.61 1.118 1.24.957 2.705-.696 5.935-2.388 8.912-5.126.302-.277.77-.238 1.02.087 2.103 2.73 4.616 4.993 7.587 6.485.794.398 1.732-.177 1.732-1.066v-7.596c0-.346-.155-.672-.417-.9-1.37-1.186-2.59-2.48-3.667-3.877-.32-.412-.358-.975-.128-1.445 2.858-5.85 4.018-12.37 4.366-14.73.07-.487-.305-.92-.795-.92H75.55c-.37 0-.69.256-.78.616-.554 2.2-1.205 3.918-2.22 5.94-.148.297-.59.263-.678-.056-.946-3.395-1.468-7.094-1.633-11.05-.028-.637.487-1.164 1.123-1.164h9.195c.618 0 1.12-.503 1.12-1.122V37.83c0-.618-.502-1.12-1.12-1.12h-9.255c-.622 0-1.126-.504-1.126-1.126V7.672c0-.37.3-.672.67-.672C80.875 7 89 15.126 89 25.15zm-8.02 5.87l-1.945-10.083c-.083-.432-.46-.744-.9-.744H74.08c-.58 0-1.013.526-.903 1.092l1.945 10.084c.084.43.462.742.902.742h4.055c.576 0 1.01-.526.9-1.092zM39.92 78.396c-.328-2.493-1.09-7.095-2.697-12.087-.17-.53-.665-.885-1.22-.885H31.7c-.852 0-1.47.815-1.234 1.634.203.704.407 1.465.61 2.254.12.477-.198.956-.686 1.024-1.08.15-2.873.403-3.967.557-.495.07-.937-.316-.937-.818V61.13c0-.285.23-.516.515-.516h9.42c2.3 0 4.163-1.864 4.163-4.163V36.96c0-.945-.766-1.712-1.712-1.712h-3.615c-.945 0-1.712-.766-1.712-1.712v-2.43c0-.947-.766-1.713-1.712-1.713h-3.824c-.945 0-1.712.768-1.712 1.714v2.43c0 .947-.765 1.713-1.71 1.713H19.48c-.946 0-1.713.767-1.713 1.712v34.416c0 .424-.31.783-.73.84-1.007.143-1.736 1.03-1.68 2.044l.25 4.577c.036.68.673 1.164 1.338 1.02l14.96-3.273c.447-.098.89.19.983.64.14.666.26 1.257.36 1.74.16.803.866 1.38 1.685 1.38h3.286c1.04 0 1.84-.916 1.705-1.948z" fill="url(#b)" mask="url(#c)"/></g></svg>