<svg width="95" height="95" viewBox="0 0 95 95" xmlns="http://www.w3.org/2000/svg" xmlns:xlink="http://www.w3.org/1999/xlink"><defs><rect id="a" width="95" height="95" rx="22"/><linearGradient x1="50%" y1="0%" x2="50%" y2="100%" id="c"><stop stop-color="#FFD199" offset="0%"/><stop stop-color="#FFA953" offset="59.758%"/><stop stop-color="#FAB239" offset="100%"/></linearGradient><path d="M59.117 44.99c0 .646-.523 1.17-1.168 1.17H36.96c-.645 0-1.168-.524-1.168-1.17v-9.113c0-.645.523-1.168 1.168-1.168h20.99c.644 0 1.167.52 1.167 1.16v9.11zm-35.21-19.234c.644 0 1.167-.523 1.167-1.168v-7.322c0-.645.524-1.17 1.17-1.17h8.38c.646 0 1.17.525 1.17 1.17v7.322c0 .645.523 1.168 1.168 1.168H57.95c.644 0 1.167-.523 1.167-1.168v-7.322c0-.645.523-1.17 1.168-1.17h8.382c.646 0 1.17.525 1.17 1.17v7.322c0 .645.523 1.168 1.168 1.168h15.853c.907 0 1.642-.735 1.642-1.642C88.5 14.387 80.614 6.5 70.886 6.5H24.114C14.386 6.5 6.5 14.387 6.5 24.114c0 .907.735 1.642 1.642 1.642h15.764zm34.042 29.33H36.96c-.645 0-1.168.524-1.168 1.17v12.11c0 .644.523 1.167 1.168 1.167h20.99c.644 0 1.167-.523 1.167-1.168v-12.11c0-.645-.523-1.168-1.168-1.168zM71 34.71c-.645 0-1.17.522-1.17 1.167V70.72c0 5.026-4.075 9.104-9.104 9.104H27.85c-1.533 0-2.776-1.243-2.776-2.775V35.87c0-.645-.523-1.168-1.168-1.168H8.142c-.907 0-1.642.734-1.642 1.64V70.88c0 9.728 7.886 17.615 17.614 17.615h46.772c9.728 0 17.614-7.887 17.614-17.614V36.35c0-.906-.735-1.64-1.642-1.64H71.005z" id="b"/></defs><g fill="none" fill-rule="evenodd"><mask><use xlink:href="#a"/></mask><use fill="#fff" xlink:href="#a"/><mask><use xlink:href="#b"/></mask><use fill="url(#c)" xlink:href="#b"/></g></svg>