<svg width="95" height="95" viewBox="0 0 95 95" xmlns="http://www.w3.org/2000/svg" xmlns:xlink="http://www.w3.org/1999/xlink"><title>avatar-kuromu-2x</title><defs><rect id="a" width="95" height="95" rx="22"/><linearGradient x1="50%" y1="0%" x2="50%" y2="100%" id="b"><stop stop-color="#F195F5" offset="0%"/><stop stop-color="#C739DD" offset="57.569%"/><stop stop-color="#C100D5" offset="100%"/></linearGradient></defs><g fill="none" fill-rule="evenodd"><mask id="c" fill="#fff"><use xlink:href="#a"/></mask><use fill="#FFF" xlink:href="#a"/><path d="M89 24.42v47.16C89 81.2 81.2 89 71.58 89H24.42c-7.54 0-13.974-4.818-16.392-11.536-.372-1.032.406-2.12 1.503-2.12H50.3c11.707 0 23.954-6.008 23.954-23.26V23.377c0-1.035-.837-1.873-1.872-1.873H32.835c-.776 0-1.405.614-1.443 1.39-.414 8.34-4.46 17.54-9.726 19.1-.92.27-1.562 1.102-1.562 2.062V47.9c0 2.107 1.98 3.643 4.026 3.136 6.512-1.615 13.836-7.274 14.855-19.752.046-.564.517-.998 1.083-.998h23.62c.602 0 1.09.487 1.09 1.088v20.093c0 9.396-5.777 15.404-17.254 15.404H8.94c-1.072 0-1.94-.866-1.94-1.937V24.42C7 14.8 14.8 7 24.42 7h47.16C81.2 7 89 14.8 89 24.42" fill="url(#b)" mask="url(#c)"/></g></svg>