<svg width="95" height="95" viewBox="0 0 95 95" xmlns="http://www.w3.org/2000/svg" xmlns:xlink="http://www.w3.org/1999/xlink"><title>avatar-setton-2x</title><defs><rect id="a" width="95" height="95" rx="22"/><linearGradient x1="50%" y1="0%" x2="50%" y2="97.969%" id="b"><stop stop-color="#AEAFB4" offset="0%"/><stop stop-color="#5F5E5E" offset="57.569%"/><stop stop-color="#3D3C3C" offset="100%"/></linearGradient><path id="c" d="M43.312 78.2c-6.952 0-12.587-5.635-12.587-12.586V38.93c0-.64-.52-1.157-1.157-1.157h-8.206c-1.926 0-3.488-1.562-3.488-3.49v-2.07c0-1.925 1.562-3.487 3.488-3.487h8.206c.638 0 1.157-.518 1.157-1.157V20.21c0-1.927 1.562-3.49 3.488-3.49h3c1.927 0 3.49 1.563 3.49 3.49v7.356c0 .638.517 1.156 1.156 1.156H72.95c2.064 0 3.736 1.673 3.736 3.736v11.32c0 7.82-6.34 14.16-14.16 14.16h-7.736c-1.746 0-3.162-1.417-3.162-3.163v-2.42c0-1.747 1.416-3.163 3.162-3.163h4.057c4.12 0 7.46-3.34 7.46-7.458v-2.453c0-.834-.68-1.51-1.513-1.51h-22.94c-.638 0-1.156.518-1.156 1.157v24.7c0 2.85 2.31 5.16 5.16 5.16H85.9c1.435 0 2.6-1.164 2.6-2.6V24.115c0-9.73-7.886-17.615-17.614-17.615H24.114C14.386 6.5 6.5 14.386 6.5 24.114v46.772c0 9.728 7.886 17.614 17.614 17.614h46.772c6.046 0 11.388-3.064 14.56-7.72.746-1.094-.047-2.58-1.372-2.58H43.312"/></defs><g fill="none" fill-rule="evenodd"><use fill="#FFF" xlink:href="#a"/><use fill="url(#b)" xlink:href="#c"/></g></svg>