<svg width="95" height="95" viewBox="0 0 95 95" xmlns="http://www.w3.org/2000/svg"><g fill="none" fill-rule="evenodd"><g><path fill="#AB1D19" d="M0 0h95v95H0z"/><path d="M0 95V0h95v95H0zm67.35-4h-3.382V77.496c0-.822.67-1.496 1.493-1.496h.396c.825 0 1.493.67 1.493 1.496V80h10.015V69.993c0-4.414-3.58-7.993-7.993-7.993H56.63l-.678-4H39.048l-.677 4H25.63c-4.414 0-7.993 3.588-7.993 7.993V80H27.65v-2.504c0-.822.67-1.496 1.494-1.496h.395c.824 0 1.492.67 1.492 1.496V91h-3.38v-9H17.634v9H4V4h87v87H77.365v-9H67.35v9zM32.705 50.895l-5.61 5.587-5.776-7.223 7.096-3.92c1.118 2.087 2.572 3.963 4.29 5.555zm28.53 0l5.61 5.587 5.777-7.223-7.096-3.92c-1.118 2.087-2.572 3.963-4.29 5.555zm1.1-30.15l5.7-5.78c-5.092-5.968-12.64-9.747-21.065-9.747-8.16 0-15.5 3.547-20.58 9.195l5.726 5.805c3.81-3.815 9.06-6.173 14.855-6.173 6.06 0 11.52 2.576 15.365 6.7zm4.37 11.018C66.9 32.88 67 34.028 67 35.2c0 11.046-8.954 20-20 20s-20-8.954-20-20c0-1.376.14-2.72.403-4.017.316.064.653.127 1.01.187 2.987.502 6.096.63 9.022.154 5.468-.892 9.212-3.9 10.146-7.134.4 1.09 1.048 2.167 1.927 3.158 1.658 1.868 4.14 3.427 7.34 4.173 2.92.68 6.012.655 8.928.205.335-.052.646-.107.93-.162zm-.312-1.468C64.207 21.62 56.354 15.2 47 15.2c-9.147 0-16.86 6.14-19.24 14.525.28.056.583.112.902.166 2.838.478 5.79.6 8.532.153 4.936-.805 8.336-3.32 9.654-8.042l1.44-.01c1.378 4.64 4.498 7.244 8.9 8.27 2.705.63 5.616.605 8.358.182.306-.047.59-.097.848-.147zm-9.137 10.16c1.704 0 3.086-1.392 3.086-3.11 0-1.717-1.382-3.11-3.086-3.11s-3.086 1.393-3.086 3.11c0 1.718 1.383 3.11 3.087 3.11zm-19.543 0c1.704 0 3.086-1.392 3.086-3.11 0-1.717-1.382-3.11-3.086-3.11s-3.085 1.393-3.085 3.11c0 1.718 1.38 3.11 3.084 3.11z" fill="#fff"/></g></g></svg>