<svg width="95" height="95" viewBox="0 0 95 95" xmlns="http://www.w3.org/2000/svg"><g fill="none" fill-rule="evenodd"><g><path fill="#59A259" d="M0 0h95v95H0z"/><path d="M0 95V0h95v95H0zm67.35-4h-3.382V77.496c0-.822.67-1.496 1.493-1.496h.396c.825 0 1.493.67 1.493 1.496V80h10.015V69.993c0-4.414-3.58-7.993-7.993-7.993H25.628c-4.414 0-7.993 3.588-7.993 7.993V80H27.65v-2.504c0-.822.67-1.496 1.494-1.496h.395c.824 0 1.492.67 1.492 1.496V91h-3.38v-9H17.634v9H4V4h87v87H77.365v-9H67.35v9zM47 15.3c-9.346 0-17.245 6.194-19.817 14.7H15c-1.104 0-2 .888-2 2 0 1.105.902 2 2 2h52.605C66.6 23.506 57.758 15.3 47 15.3zM67.7 36c0 11.432-9.268 20.7-20.7 20.7-11.432 0-20.7-9.268-20.7-20.7h8.902c-.5.557-.802 1.293-.802 2.1 0 1.74 1.41 3.15 3.15 3.15s3.15-1.41 3.15-3.15c0-.807-.303-1.543-.802-2.1h15.254c-.5.557-.802 1.293-.802 2.1 0 1.74 1.41 3.15 3.15 3.15s3.15-1.41 3.15-3.15c0-.807-.303-1.543-.802-2.1H67.7zM56.122 62h1.52c-.727 4.95-4.99 8.75-10.142 8.75-5.15 0-9.415-3.8-10.14-8.75h1.518c.71 4.118 4.3 7.25 8.622 7.25 4.32 0 7.91-3.132 8.622-7.25z" fill="#fff"/></g></g></svg>