<svg width="95" height="95" viewBox="0 0 95 95" xmlns="http://www.w3.org/2000/svg" xmlns:xlink="http://www.w3.org/1999/xlink"><title>avatar-rotchi-2x</title><defs><rect id="a" width="95" height="95" rx="22"/><linearGradient x1="50%" y1="0%" x2="50%" y2="100%" id="b"><stop stop-color="#EAF4A4" offset="0%"/><stop stop-color="#E8F13D" offset="60.065%"/><stop stop-color="#E8EA12" offset="100%"/></linearGradient><path id="c" d="M6.5 65.04V24.115C6.5 14.4 14.4 6.5 24.114 6.5h46.772C80.6 6.5 88.5 14.4 88.5 24.114v46.772C88.5 80.6 80.6 88.5 70.886 88.5H24.114c-6.137 0-11.552-3.155-14.706-7.93-1.28-2.364-1.01-4.1 1.388-4.1 2.426 0 17.786 3.154 41.988 2.07C76.987 77.458 83 62.7 76.987 50.29c-6.015-12.408-20.24-10.49-29.473-9.035 3.243-2.03 19.286-11.61 20.93-12.888 1.643-1.278 2.528-1.695 2.528-2.777V21.7c0-2.927-2.227-2.696-3.593-2.696H28.866c-1.59 0-2.606.937-2.606 2.695v2.77c0 1.77.403 2.555 2.345 2.555h26.527S34.93 39.878 27.61 44.26c-7.32 4.38-6.113 7.963-6.113 10.89 0 2.926 2.575 1.057 4.422.19 9.856-4.636 19.22-6.715 29.563-6.715 10.344 0 13.818 10.725 8.172 16.456-4.02 4.084-16.86 4.9-23.52 4.9C24.12 69.98 17.02 69.78 9 68.357c-1.17-.207-2.27-1.142-2.5-3.314z"/></defs><g fill="none" fill-rule="evenodd"><use fill="#FFF" xlink:href="#a"/><use fill="url(#b)" xlink:href="#c"/></g></svg>