<svg width="95" height="95" viewBox="0 0 95 95" xmlns="http://www.w3.org/2000/svg"><g fill="none" fill-rule="evenodd"><g><path fill="#7EC5F9" d="M0 0h95v95H0z"/><path d="M0 95V0h95v95H0zm17-4H4V4h87v87H77V70.993C77 66.58 73.426 63 69 63H25c-4.42 0-8 3.588-8 7.993V91zm11.057 0h3.396V78.496c0-.826-.67-1.496-1.5-1.496h-.397c-.828 0-1.5.674-1.5 1.496V91zm34.49 0h3.396V78.496c0-.826-.67-1.496-1.5-1.496h-.396c-.828 0-1.5.674-1.5 1.496v1.742H53.53c-.387 0-.7.313-.7.7 0 .386.313.7.7.7h9.017V91zM37.402 17.98c2.884-1.458 6.145-2.28 9.598-2.28 9.344 0 17.283 6.017 20.153 14.387-15.487 4.49-24.943.836-28.61-8.267-.48-1.19-.86-2.47-1.14-3.84zM68.3 37c0 11.764-9.536 21.3-21.3 21.3-11.764 0-21.3-9.536-21.3-21.3 0-1.07.08-2.122.23-3.15l.09.57c.395-.06 1.048-.246 1.873-.623 1.356-.62 2.707-1.564 3.964-2.897 2.303-2.443 4.013-5.89 4.922-10.486 3.325 11.02 13.635 15.768 30.73 10.818.515 1.835.79 3.77.79 5.768zM35.835 18.857c-5.05 3.115-8.702 8.28-9.795 14.334.056-.013.12-.03.196-.05.347-.1.736-.242 1.16-.435 1.218-.557 2.44-1.41 3.588-2.628 2.355-2.498 4.064-6.164 4.85-11.22zM37.55 42.25c1.74 0 3.15-1.41 3.15-3.15s-1.41-3.15-3.15-3.15-3.15 1.41-3.15 3.15 1.41 3.15 3.15 3.15zm19.95 0c1.74 0 3.15-1.41 3.15-3.15s-1.41-3.15-3.15-3.15-3.15 1.41-3.15 3.15 1.41 3.15 3.15 3.15z" fill="#fff"/></g></g></svg>