<svg width="95" height="95" viewBox="0 0 95 95" xmlns="http://www.w3.org/2000/svg"><title>avatar-eight</title><g fill="none" fill-rule="evenodd"><path fill="#9334AD" d="M0 0h95v95H0z"/><path d="M0 0v95h95V0H0zm4 4h87v87H4V4zm43.597 52.852c11.857 0 21.504-9.352 21.504-20.848 0-.486-.022-.967-.056-1.445-1.42-8.76-15.413-12.243-15.56-12.28l-.81-.194v-6.34c-1.63-.383-3.327-.59-5.076-.59-1.724 0-3.4.202-5.008.575v6.355l-.81.196c-.156.04-15.686 3.91-15.686 13.723 0 11.496 9.646 20.848 21.503 20.848zm9.438-22.085c1.63 0 2.95 1.328 2.95 2.967 0 1.64-1.32 2.967-2.95 2.967-1.63 0-2.95-1.326-2.95-2.965 0-1.64 1.32-2.967 2.95-2.967zm-18.807 0c1.63 0 2.95 1.328 2.95 2.967 0 1.64-1.32 2.967-2.95 2.967-1.63 0-2.95-1.326-2.95-2.965 0-1.64 1.32-2.967 2.95-2.967zM55.776 91h7.547l20.94-31.748H64.86L55.777 91zM40.48 20.44v-4.106c-5.387 1.838-9.802 5.697-12.262 10.638 1.25-1.19 2.77-2.298 4.55-3.31 3.158-1.79 6.28-2.81 7.713-3.223zM75.823 91V75.885L65.853 91h9.97zM29.41 91l-9.97-15.115V91h9.97zm.99-31.748H11L31.94 91h7.546L30.4 59.252zm24.382-42.896v4.083c1.433.412 4.555 1.43 7.712 3.222 1.72.977 3.194 2.046 4.42 3.19-2.46-4.862-6.818-8.664-12.132-10.497zm2.177 45.307H52.46L41.316 83.84h4.496L56.96 61.662zm5.016 0H59.32L48.176 83.84h7.456l6.348-22.177zm-6.95 24.297H40.237L41.68 91h11.902l1.443-5.04zm-2.353-72.384V8H42.59v5.56c1.614-.34 3.29-.525 5.007-.525 1.743 0 3.44.19 5.076.54zM33.285 61.663l6.1 21.317 4.033-8.023-6.662-13.294h-3.47zm5.832 0l5.484 10.94 2.12-4.216-3.37-6.724H39.12zm10.983 0h-4.388l2.19 4.37 2.198-4.37z" fill="#FFF"/></g></svg>