<svg width="95" height="95" viewBox="0 0 95 95" xmlns="http://www.w3.org/2000/svg"><g fill="none" fill-rule="evenodd"><g><path fill="#CF629B" d="M0 0h95v95H0z"/><path d="M0 95V0h95v95H0zm67.35-4h-3.382V77.496c0-.822.67-1.496 1.493-1.496h.396c.825 0 1.493.67 1.493 1.496V80h10.015V69.993c0-4.414-3.58-7.993-7.993-7.993h-5.377C63.77 72.538 56.47 81 47.5 81c-8.97 0-16.27-8.462-16.495-19h-5.377c-4.414 0-7.993 3.588-7.993 7.993V80H27.65v-2.504c0-.822.67-1.496 1.494-1.496h.395c.824 0 1.492.67 1.492 1.496V91h-3.38v-9H17.634v9H4V4h87v87H77.365v-9H67.35v9zm-8.357-29h3c-.218 9.434-6.623 17-14.493 17s-14.275-7.566-14.494-17h3c.21 7.777 5.275 14 11.494 14 6.22 0 11.284-6.223 11.493-14zM47.5 75L51 62h-7l3.5 13zM47 14c-9.733 0-17.92 6.622-20.3 15.606.326.067.678.133 1.053.196 2.944.495 6.01.622 8.852.16 5.122-.837 8.65-3.445 10.017-8.346l1.495-.012c1.43 4.813 4.666 7.517 9.234 8.58 2.808.655 5.827.63 8.672.19.44-.068.837-.14 1.182-.213.087-.017.162-.033.224-.047C65.226 20.873 56.915 14 47 14zm.38 10.1h.004l.018.04c.108.238.22.47.34.698 1.916 3.686 5.127 5.9 9.256 6.863 3.03.707 6.237.68 9.262.212.468-.072.892-.15 1.263-.228.078-.016.148-.03.21-.045.176 1.094.267 2.216.267 3.36 0 3.636-.924 7.055-2.55 10.037.18-.024.364-.037.55-.037 2.21 0 4 1.79 4 4 0 .042 0 .085-.002.127.32-.083.656-.127 1.002-.127 2.21 0 4 1.79 4 4 0 .042 0 .085-.002.127.32-.083.656-.127 1.002-.127 2.21 0 4 1.79 4 4s-1.79 4-4 4-4-1.79-4-4c0-.042 0-.085.002-.127-.32.083-.656.127-1.002.127-2.21 0-4-1.79-4-4 0-.042 0-.085.002-.127-.32.083-.656.127-1.002.127-1.99 0-3.64-1.453-3.948-3.356C58.236 53.564 52.902 56 47 56c-5.504 0-10.514-2.118-14.258-5.582C32.17 51.928 30.71 53 29 53c-.346 0-.682-.044-1.002-.127L28 53c0 2.21-1.79 4-4 4-.346 0-.682-.044-1.002-.127L23 57c0 2.21-1.79 4-4 4s-4-1.79-4-4 1.79-4 4-4c.346 0 .682.044 1.002.127L20 53c0-2.21 1.79-4 4-4 .346 0 .682.044 1.002.127L25 49c0-2.055 1.55-3.748 3.543-3.974C26.92 42.046 26 38.63 26 35c0-1.324.123-2.62.357-3.875.353.072.733.144 1.138.212 3.1.52 6.325.655 9.36.16 4.925-.804 8.62-3.162 10.524-7.397zm-9.666 16.355c1.704 0 3.086-1.392 3.086-3.11 0-1.717-1.382-3.11-3.086-3.11s-3.085 1.393-3.085 3.11c0 1.718 1.38 3.11 3.084 3.11zm19.543 0c1.704 0 3.086-1.392 3.086-3.11 0-1.717-1.382-3.11-3.086-3.11s-3.086 1.393-3.086 3.11c0 1.718 1.383 3.11 3.087 3.11z" fill="#fff"/></g></g></svg>