<svg width="95" height="95" viewBox="0 0 95 95" xmlns="http://www.w3.org/2000/svg" xmlns:xlink="http://www.w3.org/1999/xlink"><title>avatar-saki-2x</title><defs><rect id="a" width="95" height="95" rx="22"/><linearGradient x1="50%" y1="0%" x2="50%" y2="99.296%" id="b"><stop stop-color="#FCE6A9" offset="0%"/><stop stop-color="#FBC549" offset="57.569%"/><stop stop-color="#E2B500" offset="100%"/></linearGradient></defs><g fill="none" fill-rule="evenodd"><mask id="c" fill="#fff"><use xlink:href="#a"/></mask><use fill="#FFF" xlink:href="#a"/><path d="M71.333 7H40.336c-1.174 0-2.126.952-2.126 2.126v22.79c0 .526.426.952.952.952h17.85c.425 0 .77-.345.77-.77v-10.02c0-.59.48-1.068 1.07-1.068h8.355c.59 0 1.07.478 1.07 1.07v10.017c0 .426.345.77.77.77h10.2c1.305 0 2.363 1.06 2.363 2.364v4.533c0 1.306-1.058 2.363-2.362 2.363h-10.2c-.426 0-.772.345-.772.772V57.84c0 12.278-8.436 22.155-23.183 22.155H28.535c-.59 0-1.068-.48-1.068-1.07V72.42c0-.59.478-1.067 1.068-1.067h17.107c8.368 0 12.14-8.16 12.14-15.157v-13.3c0-.426-.345-.77-.77-.77H39.16c-.526 0-.952.426-.952.952v12.194c0 1.304-1.058 2.362-2.363 2.362h-5.013c-1.305 0-2.362-1.058-2.362-2.362V43.078c0-.526-.426-.953-.953-.953h-9.67c-1.304 0-2.362-1.057-2.362-2.363v-4.53c0-1.306 1.058-2.364 2.363-2.364h9.67c.526 0 .952-.426.952-.952V9.126C28.472 7.952 27.52 7 26.346 7h-1.678C14.91 7 7 14.91 7 24.67v46.66C7 81.09 14.91 89 24.668 89h46.664C81.09 89 89 81.09 89 71.332V24.668C89 14.91 81.09 7 71.333 7" fill="url(#b)" mask="url(#c)"/></g></svg>