<svg width="95" height="95" viewBox="0 0 95 95" xmlns="http://www.w3.org/2000/svg" xmlns:xlink="http://www.w3.org/1999/xlink"><defs><rect id="a" width="95" height="95" rx="22"/><linearGradient x1="50%" y1="0%" x2="50%" y2="100%" id="c"><stop stop-color="#888FC1" offset="0%"/><stop stop-color="#5554A7" offset="52.26%"/><stop stop-color="#2C28A7" offset="100%"/></linearGradient><path d="M50.374 40.946c1.02 1.232 2.713 3.12 4.888 5.13.43.395.152 1.11-.432 1.11h-5.304c-.55 0-1.083.213-1.47.605-.715.73-2.358 1.956-5.77 2.752-3.794.886-9.18 1.21-11.714 1.316 1.902-.745 3.752-1.63 5.402-2.68 5.392-3.432 8.408-6.537 9.83-8.24.303-.366.757-.575 1.233-.575h2.095c.48 0 .935.213 1.242.583zM88.5 24.114v46.772c0 9.728-7.886 17.614-17.614 17.614H24.114c-5.46 0-10.348-2.5-13.58-6.414-.406-.49-.06-1.23.576-1.23h22.93c10.976 0 21.326.226 30.54-3.925 6.7-3.02 10.482-8.264 12.047-10.9.422-.712-.09-1.61-.916-1.61h-8.583c-.57 0-1.103.27-1.456.718-2.21 2.808-8.526 7.3-18.38 7.3H8.054c-.854 0-1.553-.7-1.553-1.552v-46.77C6.5 14.385 14.386 6.5 24.114 6.5h46.772c9.728 0 17.614 7.886 17.614 17.614zM64.338 58.628c.424-.705-.1-1.602-.92-1.602h-9.093c-.536 0-1.05.23-1.392.64-1.835 2.21-4.376 3.682-9.054 3.682H23.213c-.93 0-1.686.755-1.686 1.686v3.51c0 .93.755 1.685 1.686 1.685h20.153c10.172 0 18.207-5.005 20.97-9.602zm16.393-8.586c0-.797-.557-1.484-1.337-1.65-2.513-.533-8.06-1.802-12.198-3.423-2.487-.975-4.325-2.365-5.595-3.598-.38-.368-.118-1.01.41-1.01h16.41c.93 0 1.685-.754 1.685-1.685v-3.453c0-.93-.755-1.686-1.686-1.686H50.954c-.35 0-.6-.34-.494-.672.39-1.244.89-2.9 1.27-4.38.095-.375.43-.635.816-.635h12.44c.687 0 1.322.37 1.664.966l.1.175c.24.42.687.68 1.172.68h6.83c.95 0 1.55-1.017 1.09-1.846l-5.025-9.09c-.305-.55-.884-.892-1.513-.892h-7.32c-.72 0-1.17.776-.812 1.4l1.107 1.935c.265.465-.07 1.044-.607 1.044H37.468c-.605 0-1.013-.615-.777-1.172l2.87-6.784c.242-.57-.176-1.2-.794-1.2h-7.733c-.697 0-1.328.41-1.614 1.045l-3.25 7.23c-.24.536-.773.88-1.36.88h-5.975c-.93 0-1.686.756-1.686 1.687v2.258c0 .93.754 1.686 1.685 1.686h20.79c.585 0 .996.58.796 1.13-.41 1.133-1.06 2.407-1.954 3.744-.338.505-.9.814-1.508.814h-20.74c-.93 0-1.685.755-1.685 1.686v3.453c0 .93.755 1.686 1.686 1.686H29.22c.514 0 .716.67.284.95-3.578 2.324-8.018 4.312-13.354 5.487-.777.17-1.334.853-1.334 1.65v5.194c0 1.024.904 1.81 1.918 1.67 2.13-.297 5.78-.912 9.67-2.047.547-.16 1.094.247 1.094.816v2.57c0 .74.6 1.34 1.338 1.34h6.453c8.865 0 18.358-2.13 21.698-8.974.252-.517.92-.655 1.373-.3 1.33 1.043 2.767 2.055 4.286 2.96 5.7 3.394 12.82 4.72 16.17 5.182 1.014.14 1.915-.648 1.915-1.67v-5.15z" id="b"/></defs><g fill="none" fill-rule="evenodd"><g><mask><use xlink:href="#a"/></mask><use fill="#fff" xlink:href="#a"/><mask><use xlink:href="#b"/></mask><use fill="url(#c)" xlink:href="#b"/></g></g></svg>